HIERARCHY
ROOT Hips
{
	OFFSET 50.164200 8.374561 54.958698
	CHANNELS 6 Xposition Yposition Zposition Xrotation Yrotation Zrotation
	JOINT spine
	{
		OFFSET 0.000000 -0.342408 5.954380
		CHANNELS 3 Xrotation Yrotation Zrotation
		JOINT spine1
		{
			OFFSET 0.000000 -0.000002 8.856018
			CHANNELS 3 Xrotation Yrotation Zrotation
			JOINT spine2
			{
				OFFSET 0.000000 -0.000001 8.485672
				CHANNELS 3 Xrotation Yrotation Zrotation
				JOINT Neck
				{
					OFFSET 0.000000 -1.038704 21.786301
					CHANNELS 3 Xrotation Yrotation Zrotation
					JOINT Head
					{
						OFFSET 0.000000 -0.000001 6.582199
						CHANNELS 3 Xrotation Yrotation Zrotation
						End Site
						{
							OFFSET 0.000000 5.254357 15.932602
						}
					}
				}
				JOINT RightShoulder
				{
					OFFSET -3.573071 0.497523 9.163857
					CHANNELS 3 Xrotation Yrotation Zrotation
					JOINT RightArm
					{
						OFFSET 0.000000 -0.000002 12.019203
						CHANNELS 3 Xrotation Yrotation Zrotation
						JOINT RightArmRoll
						{
							OFFSET 0.000000 -0.000001 6.067551
							CHANNELS 3 Xrotation Yrotation Zrotation
							JOINT RightForeArm
							{
								OFFSET 0.000000 -0.000003 17.672600
								CHANNELS 3 Xrotation Yrotation Zrotation
								JOINT RightForeArmRoll
								{
									OFFSET 0.000000 -0.000001 6.808716
									CHANNELS 3 Xrotation Yrotation Zrotation
									JOINT RightHand
									{
										OFFSET 0.000000 -0.000003 13.663605
										CHANNELS 3 Xrotation Yrotation Zrotation
										End Site
										{
											OFFSET 0.000000 0.000000 0.100006
										}
									}
								}
							}
						}
					}
				}
				JOINT LeftShoulder
				{
					OFFSET 3.573071 0.497523 9.163857
					CHANNELS 3 Xrotation Yrotation Zrotation
					JOINT LeftArm
					{
						OFFSET 0.000000 -0.000002 12.019203
						CHANNELS 3 Xrotation Yrotation Zrotation
						JOINT LeftArmRoll
						{
							OFFSET 0.000000 -0.000001 6.067551
							CHANNELS 3 Xrotation Yrotation Zrotation
							JOINT LeftForeArm
							{
								OFFSET 0.000000 -0.000003 17.672600
								CHANNELS 3 Xrotation Yrotation Zrotation
								JOINT LeftForeArmRoll
								{
									OFFSET 0.000000 -0.000001 6.808731
									CHANNELS 3 Xrotation Yrotation Zrotation
									JOINT LeftHand
									{
										OFFSET 0.000000 -0.000003 13.663605
										CHANNELS 3 Xrotation Yrotation Zrotation
										End Site
										{
											OFFSET 0.000000 0.000000 0.100006
										}
									}
								}
							}
						}
					}
				}
			}
		}
	}
	JOINT RightUpLeg
	{
		OFFSET -5.277740 0.811858 -0.967796
		CHANNELS 3 Xrotation Yrotation Zrotation
		JOINT RightUpLegRoll
		{
			OFFSET 0.000000 -0.000003 16.021397
			CHANNELS 3 Xrotation Yrotation Zrotation
			JOINT RightLeg
			{
				OFFSET 0.000000 0.000003 -19.840099
				CHANNELS 3 Xrotation Yrotation Zrotation
				JOINT RightLegRoll
				{
					OFFSET 0.000000 -0.000003 19.905003
					CHANNELS 3 Xrotation Yrotation Zrotation
					JOINT RightFoot
					{
						OFFSET 0.000000 -0.000003 16.567497
						CHANNELS 3 Xrotation Yrotation Zrotation
						JOINT RightToeBase
						{
							OFFSET 0.000000 -0.000002 13.849602
							CHANNELS 3 Xrotation Yrotation Zrotation
							End Site
							{
								OFFSET 0.005871 0.773115 6.707283
							}
						}
					}
				}
			}
		}
	}
	JOINT LeftUpLeg
	{
		OFFSET 5.277740 0.811858 -0.967796
		CHANNELS 3 Xrotation Yrotation Zrotation
		JOINT LeftUpLegRoll
		{
			OFFSET 0.000000 -0.000003 16.021503
			CHANNELS 3 Xrotation Yrotation Zrotation
			JOINT LeftLeg
			{
				OFFSET 0.000000 -0.000003 19.839996
				CHANNELS 3 Xrotation Yrotation Zrotation
				JOINT LeftLegRoll
				{
					OFFSET 0.000000 -0.000004 20.089005
					CHANNELS 3 Xrotation Yrotation Zrotation
					JOINT LeftFoot
					{
						OFFSET 0.000000 -0.000003 16.383499
						CHANNELS 3 Xrotation Yrotation Zrotation
						JOINT LeftToeBase
						{
							OFFSET 0.000000 -0.000002 13.849594
							CHANNELS 3 Xrotation Yrotation Zrotation
							End Site
							{
								OFFSET -0.026310 0.773116 6.707275
							}
						}
					}
				}
			}
		}
	}
}
MOTION
Frames: 13
Frame Time: 0.041667
49.816700 9.113512 55.017200 5.077378 5.632471 6.143596 -0.014556 -0.908346 0.074157 3.975318 -1.815564 0.142339 5.620725 -1.813584 0.175292 30.090002 -0.024422 -3.663858 12.328738 -2.722590 -3.178455 -3.306290 -73.795133 -5.261921 106.455561 -52.108958 102.030534 -0.000000 0.000001 0.000010 -0.039319 3.756839 -1.990835 -0.000000 0.000007 -3.011599 -5.000143 -7.999931 0.000013 -11.873547 62.937024 14.158976 -57.143016 131.732165 69.444821 -0.000001 -0.000002 -0.000000 -0.051005 -3.796449 1.990862 -0.000003 -0.000004 3.011600 -5.000183 7.999916 0.000005 -89.384520 -177.829453 0.928664 -179.999991 0.000004 -0.977987 102.924769 0.886181 -2.976376 0.000004 0.000002 1.660260 69.761558 7.029115 1.716640 25.456964 -7.355618 0.000001 -90.695712 181.987290 3.789937 -0.000005 -0.000005 -1.015290 -73.653290 -4.141916 -0.062055 0.000001 0.000007 -1.512899 64.741874 -7.337541 -1.362180 25.456950 7.355613 -0.000001 
49.861900 9.125242 55.024200 4.957189 5.619106 6.131289 -0.012566 -0.906130 0.074149 3.979291 -1.811126 0.142426 5.624693 -1.809153 0.175144 30.070406 -0.023591 -3.647381 12.345933 -2.710747 -3.163648 -3.236898 -73.848067 -5.191313 106.425166 -52.172171 102.025664 -0.000000 0.000002 0.000011 -0.039427 3.761290 -1.990835 -0.000001 0.000007 -3.011601 -5.000144 -7.999930 0.000013 -11.903172 62.975321 14.195034 -57.121046 131.681075 69.403403 -0.000002 -0.000002 -0.000000 -0.050776 -3.795706 1.990868 -0.000002 -0.000004 3.011600 -5.000180 7.999917 0.000004 -89.307360 -177.849247 0.939799 -179.999991 0.000004 -0.980992 102.898815 0.897883 -2.969505 0.000004 0.000003 1.661660 69.755568 7.029283 1.716651 25.456967 -7.355619 0.000001 -90.612138 181.973069 3.801463 -0.000004 -0.000005 -1.017469 -73.681431 -4.152977 -0.069903 0.000001 0.000006 -1.513969 64.739818 -7.338044 -1.361434 25.456950 7.355613 -0.000001 
49.924301 9.145601 55.027195 4.839543 5.608537 6.116881 -0.011452 -0.903975 0.074139 3.981513 -1.806811 0.142560 5.626922 -1.804847 0.174924 30.053608 -0.031069 -3.628593 12.362827 -2.688963 -3.148670 -3.151958 -73.908411 -5.104551 106.389991 -52.248717 102.021689 0.000000 0.000001 0.000011 -0.039307 3.764539 -1.990839 -0.000000 0.000007 -3.011599 -5.000143 -7.999931 0.000013 -11.931555 62.995190 14.228873 -57.074410 131.631324 69.348304 -0.000001 -0.000001 -0.000001 -0.050227 -3.793099 1.990867 -0.000003 -0.000004 3.011602 -5.000180 7.999918 0.000005 -89.234564 -177.872237 0.954317 -179.999991 0.000005 -0.983997 102.870483 0.908928 -2.961524 0.000004 0.000003 1.662931 69.749147 7.029439 1.716685 25.456960 -7.355618 0.000001 -90.532614 181.955693 3.815805 -0.000005 -0.000004 -1.019570 -73.711982 -4.164968 -0.078317 0.000002 0.000007 -1.515070 64.737749 -7.338508 -1.360578 25.456948 7.355612 0.000000 
49.873901 9.157402 55.007900 4.724020 5.600239 6.099742 -0.011047 -0.901651 0.074126 3.982313 -1.802171 0.142752 5.627716 -1.800207 0.174614 30.038117 -0.047041 -3.607179 12.381133 -2.657858 -3.133070 -3.048929 -73.977786 -4.999038 106.348620 -52.338753 102.017577 0.000000 0.000002 0.000011 -0.038983 3.767070 -1.990840 -0.000000 0.000007 -3.011600 -5.000144 -7.999932 0.000013 -11.959452 62.997765 14.261402 -57.004769 131.581805 69.279954 -0.000002 -0.000001 -0.000000 -0.049370 -3.788589 1.990867 -0.000003 -0.000004 3.011600 -5.000182 7.999919 0.000005 -89.165517 -177.899312 0.970201 -179.999991 0.000004 -0.986989 102.840601 0.919134 -2.955424 0.000004 0.000002 1.664050 69.741976 7.029607 1.716771 25.456962 -7.355617 0.000002 -90.456348 181.934738 3.830994 -0.000005 -0.000004 -1.021560 -73.744528 -4.177742 -0.086997 0.000001 0.000006 -1.516200 64.735898 -7.339005 -1.359613 25.456952 7.355613 0.000000 
49.888000 9.176051 54.976402 4.610354 5.594012 6.080269 -0.011266 -0.899220 0.074114 3.981871 -1.797314 0.142993 5.627281 -1.795351 0.174233 30.023924 -0.070148 -3.583520 12.400558 -2.618833 -3.116937 -2.929933 -74.054612 -4.876949 106.301280 -52.440598 102.012413 0.000000 0.000002 0.000010 -0.038484 3.768890 -1.990830 -0.000003 0.000007 -3.011598 -5.000142 -7.999930 0.000013 -11.986663 62.985593 14.292495 -56.915133 131.532409 69.200041 -0.000000 -0.000001 0.000000 -0.048233 -3.782409 1.990868 -0.000002 -0.000003 3.011601 -5.000182 7.999917 0.000006 -89.099743 -177.929898 0.989464 -179.999991 0.000005 -0.989994 102.809018 0.928944 -2.949274 0.000003 0.000002 1.665050 69.734196 7.029787 1.716897 25.456964 -7.355619 0.000001 -90.382958 181.910723 3.849017 -0.000004 -0.000004 -1.023480 -73.779041 -4.191287 -0.096249 0.000001 0.000007 -1.517380 64.734245 -7.339450 -1.358624 25.456950 7.355612 0.000001 
49.882198 9.189943 54.966999 4.498249 5.589654 6.058875 -0.012003 -0.896741 0.074099 3.980380 -1.792359 0.143279 5.625784 -1.790401 0.173792 30.010946 -0.099027 -3.558020 12.420825 -2.573311 -3.100360 -2.797172 -74.137551 -4.740544 106.249309 -52.551971 102.006744 0.000000 0.000001 0.000010 -0.037826 3.770059 -1.990834 0.000001 0.000006 -3.011597 -5.000140 -7.999929 0.000015 -12.013171 62.961333 14.322261 -56.807749 131.483669 69.108899 -0.000001 -0.000002 -0.000000 -0.046868 -3.774808 1.990873 -0.000002 -0.000004 3.011601 -5.000180 7.999917 0.000005 -89.036898 -177.963448 1.010520 -179.999991 0.000005 -0.992985 102.775865 0.938359 -2.943050 0.000004 0.000002 1.665959 69.725966 7.029954 1.716948 25.456964 -7.355618 0.000001 -90.312067 181.884154 3.868372 -0.000005 -0.000004 -1.025330 -73.815330 -4.205555 -0.105773 0.000001 0.000007 -1.518590 64.732688 -7.339867 -1.357724 25.456948 7.355613 -0.000001 
49.887199 9.196721 54.967800 4.387465 5.586990 6.035943 -0.013170 -0.894273 0.074084 3.978040 -1.787426 0.143602 5.623448 -1.785481 0.173308 29.999290 -0.132319 -3.531057 12.441550 -2.522703 -3.083427 -2.652813 -74.224834 -4.592060 106.192974 -52.671209 101.999668 -0.000002 0.000001 0.000012 -0.037041 3.770590 -1.990835 -0.000000 0.000008 -3.011600 -5.000143 -7.999931 0.000011 -12.038868 62.927605 14.350683 -56.687483 131.434409 69.010503 0.000001 -0.000001 -0.000000 -0.045317 -3.766028 1.990873 0.000001 -0.000004 3.011601 -5.000181 7.999916 0.000005 -88.976567 -177.999388 1.033170 -179.999991 0.000004 -0.996988 102.741113 0.947381 -2.936774 0.000003 0.000003 1.666820 69.717435 7.030145 1.717023 25.456962 -7.355619 0.000000 -90.243287 181.855440 3.889056 -0.000005 -0.000005 -1.027140 -73.853469 -4.220506 -0.115877 0.000000 0.000006 -1.519841 64.731144 -7.340327 -1.356531 25.456952 7.355613 -0.000001 
49.887100 9.212921 54.951099 4.277689 5.585802 6.011902 -0.014668 -0.891875 0.074070 3.975036 -1.782635 0.143956 5.620444 -1.780694 0.172791 29.988734 -0.168660 -3.503009 12.462648 -2.468428 -3.066216 -2.499201 -74.315218 -4.433908 106.136236 -52.795566 101.995051 -0.000000 0.000001 0.000011 -0.036155 3.770520 -1.990832 -0.000000 0.000007 -3.011600 -5.000143 -7.999931 0.000013 -12.063656 62.886952 14.377751 -56.557320 131.384399 68.906281 -0.000002 -0.000003 -0.000000 -0.043613 -3.756309 1.990872 -0.000001 -0.000004 3.011600 -5.000183 7.999916 0.000006 -88.918401 -178.037173 1.057430 -179.999991 0.000005 -0.999993 102.704673 0.955991 -2.930433 0.000003 0.000003 1.667630 69.708678 7.030328 1.717110 25.456967 -7.355618 0.000001 -90.176249 181.825018 3.911397 -0.000004 -0.000005 -1.028920 -73.893351 -4.236071 -0.126171 0.000001 0.000007 -1.521120 64.729484 -7.340770 -1.355441 25.456948 7.355613 -0.000000 
49.788799 9.207623 54.987000 4.168671 5.585893 5.987124 -0.016405 -0.889607 0.074058 3.971556 -1.778093 0.144336 5.616957 -1.776166 0.172260 29.979418 -0.206688 -3.474278 12.483639 -2.411878 -3.048836 -2.338696 -74.407043 -4.268532 106.076997 -52.924035 101.988979 -0.000001 0.000002 0.000011 -0.035193 3.769890 -1.990837 -0.000002 0.000006 -3.011600 -5.000145 -7.999931 0.000013 -12.087504 62.842016 14.403537 -56.419627 131.334238 68.796794 -0.000002 -0.000003 0.000001 -0.041808 -3.745899 1.990880 -0.000003 -0.000004 3.011600 -5.000185 7.999917 0.000005 -88.861956 -178.076214 1.082603 -179.999991 0.000005 -1.003996 102.666636 0.964424 -2.925037 0.000004 0.000002 1.668431 69.699915 7.030473 1.717292 25.456965 -7.355618 0.000001 -90.110576 181.793613 3.934471 -0.000004 -0.000004 -1.030710 -73.934899 -4.252283 -0.137147 0.000001 0.000006 -1.522440 64.727531 -7.341251 -1.354283 25.456947 7.355613 -0.000000 
49.799900 9.226413 54.961102 4.060133 5.587067 5.962009 -0.018279 -0.887527 0.074048 3.967794 -1.773940 0.144735 5.613203 -1.772017 0.171724 29.971300 -0.245039 -3.445231 12.504424 -2.354489 -3.031343 -2.173839 -74.498984 -4.098528 106.017923 -53.053976 101.983699 0.000000 0.000001 0.000010 -0.034181 3.768730 -1.990831 -0.000002 0.000007 -3.011600 -5.000145 -7.999932 0.000012 -12.110416 62.795530 14.428168 -56.278320 131.283148 68.684731 -0.000001 -0.000002 0.000001 -0.039934 -3.735030 1.990878 -0.000002 -0.000004 3.011599 -5.000183 7.999917 0.000004 -88.806823 -178.115925 1.109619 -179.999991 0.000004 -1.007985 102.627014 0.972449 -2.919593 0.000003 0.000002 1.669250 69.691179 7.030685 1.717384 25.456964 -7.355618 0.000001 -90.045881 181.761511 3.958294 -0.000005 -0.000004 -1.032510 -73.977984 -4.269071 -0.148412 0.000001 0.000007 -1.523790 64.725270 -7.341767 -1.353050 25.456950 7.355613 0.000001 
49.858398 9.250471 54.868599 3.951796 5.589120 5.936967 -0.020201 -0.885694 0.074040 3.963945 -1.770277 0.145145 5.609350 -1.768367 0.171200 29.964405 -0.282352 -3.416250 12.524534 -2.297662 -3.013839 -2.007217 -74.589395 -3.926585 105.960748 -53.183432 101.980141 -0.000001 0.000001 0.000012 -0.033149 3.767070 -1.990831 -0.000000 0.000007 -3.011601 -5.000142 -7.999929 0.000013 -12.132269 62.749952 14.451611 -56.136481 131.230938 68.571773 -0.000000 -0.000002 -0.000000 -0.038041 -3.723960 1.990878 -0.000001 -0.000004 3.011600 -5.000183 7.999917 0.000005 -88.752653 -178.155813 1.136878 -179.999991 0.000004 -1.011988 102.585712 0.980059 -2.915076 0.000004 0.000003 1.670110 69.682649 7.030867 1.717458 25.456964 -7.355618 0.000001 -89.981793 181.729204 3.982772 -0.000005 -0.000004 -1.034349 -74.022599 -4.286395 -0.160075 0.000001 0.000006 -1.525170 64.722702 -7.342318 -1.351648 25.456952 7.355612 0.000000 
49.834400 9.258363 54.879799 3.843395 5.591831 5.912382 -0.022072 -0.884169 0.074035 3.960197 -1.767233 0.145562 5.605599 -1.765323 0.170701 29.958606 -0.317265 -3.387715 12.543770 -2.242814 -2.996373 -1.841604 -74.676958 -3.755555 105.904556 -53.310808 101.975954 -0.000003 0.000002 0.000009 -0.032121 3.764940 -1.990830 -0.000000 0.000007 -3.011600 -5.000143 -7.999931 0.000010 -12.153130 62.708097 14.474047 -55.997323 131.177417 68.459457 -0.000002 -0.000003 -0.000000 -0.036171 -3.712929 1.990878 -0.000002 -0.000003 3.011601 -5.000183 7.999916 0.000005 -88.698974 -178.195223 1.165388 -179.999991 0.000004 -1.015990 102.542689 0.987684 -2.909546 0.000004 0.000002 1.671050 69.674534 7.031025 1.717502 25.456967 -7.355619 0.000001 -89.917917 181.697334 4.007619 -0.000005 -0.000005 -1.036250 -74.068655 -4.304237 -0.172132 0.000001 0.000006 -1.526590 64.719430 -7.342967 -1.350116 25.456948 7.355610 0.000000 
49.839401 9.276302 54.863705 3.734660 5.594996 5.888638 -0.023796 -0.883011 0.074035 3.956740 -1.764925 0.145977 5.602141 -1.763014 0.170239 29.953812 -0.348412 -3.360021 12.561842 -2.191360 -2.979036 -1.679833 -74.760054 -3.588370 105.851062 -53.434045 101.972115 0.000001 0.000002 0.000010 -0.031119 3.762380 -1.990837 0.000002 0.000007 -3.011599 -5.000139 -7.999930 0.000014 -12.172900 62.672409 14.495482 -55.865002 131.121874 68.350734 0.000001 -0.000003 -0.000000 -0.034356 -3.702170 1.990871 0.000000 -0.000003 3.011599 -5.000180 7.999917 0.000006 -88.645494 -178.233745 1.194576 -179.999991 0.000005 -1.019992 102.498190 0.994908 -2.904948 0.000003 0.000002 1.672080 69.666850 7.031233 1.717424 25.456964 -7.355618 0.000001 -89.853891 181.666312 4.032625 -0.000005 -0.000005 -1.038220 -74.116036 -4.322583 -0.184684 0.000001 0.000007 -1.528039 64.715646 -7.343616 -1.348615 25.456952 7.355613 -0.000000 
